<?xml version="1.0" encoding="UTF-8" standalone="no"?>
<svg
   xmlns:osb="http://www.openswatchbook.org/uri/2009/osb"
   xmlns:dc="http://purl.org/dc/elements/1.1/"
   xmlns:cc="http://creativecommons.org/ns#"
   xmlns:rdf="http://www.w3.org/1999/02/22-rdf-syntax-ns#"
   xmlns:svg="http://www.w3.org/2000/svg"
   xmlns="http://www.w3.org/2000/svg"
   xmlns:xlink="http://www.w3.org/1999/xlink"
   xmlns:sodipodi="http://sodipodi.sourceforge.net/DTD/sodipodi-0.dtd"
   xmlns:inkscape="http://www.inkscape.org/namespaces/inkscape"
   width="15.922582mm"
   height="7.6862707mm"
   viewBox="0 0 15.922582 7.6862707"
   version="1.1"
   id="svg8"
   inkscape:version="1.0.2 (e86c870879, 2021-01-15)"
   sodipodi:docname="logo.svg">
  <defs
     id="defs2">
    <linearGradient
       inkscape:collect="always"
       id="linearGradient2839">
      <stop
         style="stop-color:#000000;stop-opacity:1;"
         offset="0"
         id="stop2835" />
      <stop
         style="stop-color:#000000;stop-opacity:0;"
         offset="1"
         id="stop2837" />
    </linearGradient>
    <linearGradient
       id="linearGradient2831"
       osb:paint="solid">
      <stop
         style="stop-color:#ffffff;stop-opacity:1;"
         offset="0"
         id="stop2829" />
    </linearGradient>
    <linearGradient
       inkscape:collect="always"
       xlink:href="#linearGradient2831"
       id="linearGradient2833"
       x1="43.771416"
       y1="117.02336"
       x2="59.528996"
       y2="117.02336"
       gradientUnits="userSpaceOnUse" />
    <linearGradient
       inkscape:collect="always"
       xlink:href="#linearGradient2839"
       id="linearGradient2841"
       x1="43.771416"
       y1="117.02336"
       x2="59.528996"
       y2="117.02336"
       gradientUnits="userSpaceOnUse" />
  </defs>
  <sodipodi:namedview
     id="base"
     pagecolor="#ffffff"
     bordercolor="#666666"
     borderopacity="1.0"
     inkscape:pageopacity="0.0"
     inkscape:pageshadow="2"
     inkscape:zoom="31.678384"
     inkscape:cx="41.086009"
     inkscape:cy="9.1710092"
     inkscape:document-units="mm"
     inkscape:current-layer="layer1"
     inkscape:document-rotation="0"
     showgrid="false"
     inkscape:window-width="3840"
     inkscape:window-height="2066"
     inkscape:window-x="-11"
     inkscape:window-y="-11"
     inkscape:window-maximized="1"
     showguides="true"
     inkscape:guide-bbox="true" />
  <metadata
     id="metadata5">
    <rdf:RDF>
      <cc:Work
         rdf:about="">
        <dc:format>image/svg+xml</dc:format>
        <dc:type
           rdf:resource="http://purl.org/dc/dcmitype/StillImage" />
        <dc:title />
      </cc:Work>
    </rdf:RDF>
  </metadata>
  <g
     inkscape:label="Layer 1"
     inkscape:groupmode="layer"
     id="layer1"
     transform="translate(-43.688914,-113.18022)">
    <g
       aria-label="FZ3D"
       id="text835"
       style="font-style:normal;font-variant:normal;font-weight:normal;font-stretch:normal;font-size:10.5833px;line-height:1;font-family:ISOCPEUR;-inkscape-font-specification:ISOCPEUR;letter-spacing:-1.03717px;word-spacing:0px;fill:#ffffff;fill-opacity:1;stroke:#000000;stroke-width:0.165;stroke-miterlimit:4;stroke-dasharray:none;stroke-dashoffset:0;stroke-opacity:1">
      <path
         d="m 43.771414,119.85536 v -6.13914 q 0,-0.34106 0.341063,-0.34106 h 2.728507 q 0.341063,0 0.341063,0.34106 0,0.34107 -0.341063,0.34107 H 44.45354 v 2.04638 h 2.387444 q 0.341063,0 0.341063,0.34106 0,0.34106 -0.341063,0.34106 H 44.45354 v 3.06957 q 0,0.34107 -0.341063,0.34107 -0.341063,0 -0.341063,-0.34107 z"
         style="font-style:normal;font-variant:normal;font-weight:normal;font-stretch:normal;font-family:ISOCPEUR;-inkscape-font-specification:ISOCPEUR;fill:#ffffff;fill-opacity:1;stroke:#000000;stroke-width:0.165;stroke-linejoin:miter;stroke-miterlimit:4;stroke-dasharray:none;stroke-dashoffset:0;stroke-opacity:1"
         id="path1431" />
      <path
         d="m 47.554136,119.5143 h 2.826692 q 0.341063,0 0.341063,0.34106 0,0.34107 -0.341063,0.34107 h -3.410634 q -0.341063,0 -0.341063,-0.34107 0,-0.0879 0.06718,-0.2067 l 3.105743,-5.59137 h -2.831859 q -0.341063,0 -0.341063,-0.34107 0,-0.34106 0.341063,-0.34106 h 3.410634 q 0.341063,0 0.341063,0.33589 0,0.093 -0.06718,0.21188 z"
         style="font-style:normal;font-variant:normal;font-weight:normal;font-stretch:normal;font-family:ISOCPEUR;-inkscape-font-specification:ISOCPEUR;fill:#ffffff;fill-opacity:1;stroke:#000000;stroke-width:0.165;stroke-linejoin:miter;stroke-miterlimit:4;stroke-dasharray:none;stroke-dashoffset:0;stroke-opacity:1"
         id="path1433" />
      <path
         d="m 52.930473,117.02336 -0.58733,-0.3296 q -0.293664,-0.1648 -0.128867,-0.45846 0.164797,-0.29367 0.458462,-0.12887 l 0.58733,0.3296 q 0.369306,0.20724 0.76525,0.096 0.402891,-0.11325 0.610136,-0.48256 0.204748,-0.36485 0.0915,-0.76774 -0.113247,-0.4029 -0.478104,-0.60764 l -1.17466,-0.65919 q -0.293665,-0.1648 -0.128868,-0.45846 0.164797,-0.29367 0.458462,-0.12887 l 1.17466,0.65919 q 0.609578,0.34208 0.794525,1.01338 0.189397,0.6738 -0.150185,1.27893 -0.409496,0.72971 -1.246518,0.84506 0.337637,0.77454 -0.07186,1.50426 l -0.329594,0.58733 q -0.342079,0.60957 -1.015879,0.79897 -0.671304,0.18495 -1.276431,-0.15463 l -1.17466,-0.65919 q -0.293665,-0.1648 -0.128868,-0.45846 0.164797,-0.29367 0.458462,-0.12887 l 1.17466,0.65919 q 0.369306,0.20724 0.76525,0.096 0.402891,-0.11325 0.610136,-0.48256 l 0.329594,-0.58733 q 0.204748,-0.36485 0.0915,-0.76774 -0.113247,-0.4029 -0.478104,-0.60764 z"
         style="font-size:10.4493px;fill:#ffffff;fill-opacity:1;stroke:#000000;stroke-width:0.165;stroke-linejoin:miter;stroke-miterlimit:4;stroke-dasharray:none;stroke-dashoffset:0;stroke-opacity:1"
         id="path1435" />
      <path
         d="m 55.436235,113.71622 q 0,-0.34106 0.341064,-0.34106 h 2.04638 q 0.7183,0 1.209224,0.49609 0.496093,0.49093 0.496093,1.20923 v 3.41063 q 0,0.70796 -0.50126,1.20922 -0.496092,0.4961 -1.204057,0.4961 h -2.04638 q -0.341064,0 -0.341064,-0.34107 z m 0.682127,0.34107 v 5.45701 h 1.705317 q 0.423745,0 0.723467,-0.29972 0.299723,-0.29973 0.299723,-0.72347 v -3.41063 q 0,-0.42375 -0.299723,-0.72347 -0.299722,-0.29972 -0.723467,-0.29972 z"
         style="font-style:normal;font-variant:normal;font-weight:normal;font-stretch:normal;font-family:ISOCPEUR;-inkscape-font-specification:ISOCPEUR;fill:#ffffff;fill-opacity:1;stroke:#000000;stroke-width:0.165;stroke-linejoin:miter;stroke-miterlimit:4;stroke-dasharray:none;stroke-dashoffset:0;stroke-opacity:1"
         id="path1437" />
    </g>
  </g>
</svg>
