<?xml version="1.0" encoding="UTF-8" standalone="no"?>
<svg
   xmlns:osb="http://www.openswatchbook.org/uri/2009/osb"
   xmlns:dc="http://purl.org/dc/elements/1.1/"
   xmlns:cc="http://creativecommons.org/ns#"
   xmlns:rdf="http://www.w3.org/1999/02/22-rdf-syntax-ns#"
   xmlns:svg="http://www.w3.org/2000/svg"
   xmlns="http://www.w3.org/2000/svg"
   xmlns:xlink="http://www.w3.org/1999/xlink"
   xmlns:sodipodi="http://sodipodi.sourceforge.net/DTD/sodipodi-0.dtd"
   xmlns:inkscape="http://www.inkscape.org/namespaces/inkscape"
   width="17.1444mm"
   height="8.312829mm"
   viewBox="0 0 17.1444 8.3128296"
   version="1.1"
   id="svg887"
   inkscape:version="1.0.2 (e86c870879, 2021-01-15)"
   sodipodi:docname="logo2.svg">
  <defs
     id="defs881">
    <linearGradient
       id="linearGradient3502"
       osb:paint="solid">
      <stop
         style="stop-color:#ffffff;stop-opacity:1;"
         offset="0"
         id="stop3500" />
    </linearGradient>
    <linearGradient
       inkscape:collect="always"
       xlink:href="#linearGradient3502"
       id="linearGradient3506"
       gradientUnits="userSpaceOnUse"
       x1="64.889244"
       y1="177.47752"
       x2="88.271431"
       y2="177.47752"
       gradientTransform="translate(0.29765625,0.97565104)" />
  </defs>
  <sodipodi:namedview
     id="base"
     pagecolor="#ffffff"
     bordercolor="#666666"
     borderopacity="1.0"
     inkscape:pageopacity="0.0"
     inkscape:pageshadow="2"
     inkscape:zoom="22.627417"
     inkscape:cx="47.255716"
     inkscape:cy="12.251527"
     inkscape:document-units="mm"
     inkscape:current-layer="layer1"
     inkscape:document-rotation="0"
     showgrid="false"
     inkscape:window-width="3840"
     inkscape:window-height="2066"
     inkscape:window-x="-11"
     inkscape:window-y="-11"
     inkscape:window-maximized="1"
     fit-margin-top="-6.6"
     fit-margin-left="-6.6"
     fit-margin-right="-6.6"
     fit-margin-bottom="-7.8"
     lock-margins="true" />
  <metadata
     id="metadata884">
    <rdf:RDF>
      <cc:Work
         rdf:about="">
        <dc:format>image/svg+xml</dc:format>
        <dc:type
           rdf:resource="http://purl.org/dc/dcmitype/StillImage" />
        <dc:title></dc:title>
      </cc:Work>
    </rdf:RDF>
  </metadata>
  <g
     inkscape:label="Layer 1"
     inkscape:groupmode="layer"
     id="layer1"
     transform="translate(-67.784898,-181.80377)">
    <path
       style="fill:none;stroke:#000000;stroke-width:0.05;stroke-linecap:butt;stroke-linejoin:miter;stroke-miterlimit:4;stroke-dasharray:0.15, 0.05;stroke-dashoffset:0;stroke-opacity:1"
       d="M 66.438769,182.4814 H 87.673211"
       id="path1468" />
    <path
       style="fill:none;stroke:#000000;stroke-width:0.05;stroke-linecap:butt;stroke-linejoin:miter;stroke-miterlimit:4;stroke-dasharray:0.15, 0.05;stroke-dashoffset:0;stroke-opacity:1"
       d="M 67.198768,189.46056 H 85.50995"
       id="path1468-6" />
    <path
       style="fill:none;stroke:#000000;stroke-width:0.05;stroke-linecap:butt;stroke-linejoin:miter;stroke-miterlimit:4;stroke-dasharray:0.15, 0.05;stroke-dashoffset:0;stroke-opacity:1"
       d="M 70.91307,194.56197 81.314216,176.04933"
       id="path1468-8-4" />
    <path
       style="fill:none;stroke:#000000;stroke-width:0.05;stroke-linecap:butt;stroke-linejoin:miter;stroke-miterlimit:4;stroke-dasharray:0.15, 0.05;stroke-dashoffset:0;stroke-opacity:1"
       d="M 74.16424,195.9737 84.565386,177.46106"
       id="path1468-8-4-1" />
    <path
       style="fill:none;stroke:#000000;stroke-width:0.05;stroke-linecap:butt;stroke-linejoin:miter;stroke-miterlimit:4;stroke-dasharray:0.15, 0.05;stroke-dashoffset:0;stroke-opacity:1"
       d="m 68.392873,176.21111 v 21.23444"
       id="path1468-67" />
    <path
       d="m 68.472399,189.0372 v -6.13914 q 0,-0.34106 0.341063,-0.34106 h 2.728507 q 0.341063,0 0.341063,0.34106 0,0.34107 -0.341063,0.34107 h -2.387444 v 2.04638 h 2.387444 q 0.341063,0 0.341063,0.34106 0,0.34106 -0.341063,0.34106 h -2.387444 v 3.06957 q 0,0.34107 -0.341063,0.34107 -0.341063,0 -0.341063,-0.34107 z"
       style="font-style:normal;font-variant:normal;font-weight:normal;font-stretch:normal;font-size:10.5833px;line-height:1;font-family:ISOCPEUR;-inkscape-font-specification:ISOCPEUR;letter-spacing:-1.03717px;word-spacing:0px;fill:#ffffff;fill-opacity:1;stroke:#000000;stroke-width:0.165;stroke-linejoin:miter;stroke-miterlimit:4;stroke-dasharray:none;stroke-dashoffset:0;stroke-opacity:1"
       id="path1431" />
    <path
       d="m 72.255121,188.69614 h 2.826692 q 0.341063,0 0.341063,0.34106 0,0.34107 -0.341063,0.34107 h -3.410634 q -0.341063,0 -0.341063,-0.34107 0,-0.0879 0.06718,-0.2067 l 3.105743,-5.59137 H 71.67118 q -0.341063,0 -0.341063,-0.34107 0,-0.34106 0.341063,-0.34106 h 3.410634 q 0.341063,0 0.341063,0.33589 0,0.093 -0.06718,0.21188 z"
       style="font-style:normal;font-variant:normal;font-weight:normal;font-stretch:normal;font-size:10.5833px;line-height:1;font-family:ISOCPEUR;-inkscape-font-specification:ISOCPEUR;letter-spacing:-1.03717px;word-spacing:0px;fill:#ffffff;fill-opacity:1;stroke:#000000;stroke-width:0.165;stroke-linejoin:miter;stroke-miterlimit:4;stroke-dasharray:none;stroke-dashoffset:0;stroke-opacity:1"
       id="path1433" />
    <path
       d="m 77.631458,186.2052 -0.58733,-0.3296 q -0.293664,-0.1648 -0.128867,-0.45846 0.164797,-0.29367 0.458462,-0.12887 l 0.58733,0.3296 q 0.369306,0.20724 0.76525,0.096 0.402891,-0.11325 0.610136,-0.48256 0.204748,-0.36485 0.0915,-0.76774 -0.113247,-0.4029 -0.478104,-0.60764 l -1.17466,-0.65919 q -0.293665,-0.1648 -0.128868,-0.45846 0.164797,-0.29367 0.458462,-0.12887 l 1.17466,0.65919 q 0.609578,0.34208 0.794525,1.01338 0.189397,0.6738 -0.150185,1.27893 -0.409496,0.72971 -1.246518,0.84506 0.337637,0.77454 -0.07186,1.50426 l -0.329594,0.58733 q -0.342079,0.60957 -1.015879,0.79897 -0.671304,0.18495 -1.276431,-0.15463 l -1.17466,-0.65919 q -0.293665,-0.1648 -0.128868,-0.45846 0.164797,-0.29367 0.458462,-0.12887 l 1.17466,0.65919 q 0.369306,0.20724 0.76525,0.096 0.402891,-0.11325 0.610136,-0.48256 l 0.329594,-0.58733 q 0.204748,-0.36485 0.0915,-0.76774 -0.113247,-0.4029 -0.478104,-0.60764 z"
       style="font-style:normal;font-variant:normal;font-weight:normal;font-stretch:normal;font-size:10.4493px;line-height:1;font-family:ISOCPEUR;-inkscape-font-specification:ISOCPEUR;letter-spacing:-1.03717px;word-spacing:0px;fill:#ffffff;fill-opacity:1;stroke:#000000;stroke-width:0.165;stroke-linejoin:miter;stroke-miterlimit:4;stroke-dasharray:none;stroke-dashoffset:0;stroke-opacity:1"
       id="path1435" />
    <path
       d="m 80.13722,182.89806 q 0,-0.34106 0.341064,-0.34106 h 2.04638 q 0.7183,0 1.209224,0.49609 0.496093,0.49093 0.496093,1.20923 v 3.41063 q 0,0.70796 -0.50126,1.20922 -0.496092,0.4961 -1.204057,0.4961 h -2.04638 q -0.341064,0 -0.341064,-0.34107 z m 0.682127,0.34107 v 5.45701 h 1.705317 q 0.423745,0 0.723467,-0.29972 0.299723,-0.29973 0.299723,-0.72347 v -3.41063 q 0,-0.42375 -0.299723,-0.72347 -0.299722,-0.29972 -0.723467,-0.29972 z"
       style="font-style:normal;font-variant:normal;font-weight:normal;font-stretch:normal;font-size:10.5833px;line-height:1;font-family:ISOCPEUR;-inkscape-font-specification:ISOCPEUR;letter-spacing:-1.03717px;word-spacing:0px;opacity:1;fill:#ffffff;fill-opacity:1;stroke:#000000;stroke-width:0.165;stroke-linejoin:miter;stroke-miterlimit:4;stroke-dasharray:none;stroke-dashoffset:0;stroke-opacity:1"
       id="path1437" />
  </g>
</svg>
